<?xml version="1.0" encoding="UTF-8"?>
<!DOCTYPE svg PUBLIC "-//W3C//DTD SVG 1.1//EN" "http://www.w3.org/Graphics/SVG/1.1/DTD/svg11.dtd">
<svg xmlns="http://www.w3.org/2000/svg" version="1.1" width="512px" height="512px" style="shape-rendering:geometricPrecision; text-rendering:geometricPrecision; image-rendering:optimizeQuality; fill-rule:evenodd; clip-rule:evenodd" xmlns:xlink="http://www.w3.org/1999/xlink">
<g><path style="opacity:0.97" fill="#47c5f9" d="M 347.5,19.5 C 356.283,29.8013 365.949,39.968 376.5,50C 375.906,50.4643 375.239,50.631 374.5,50.5C 339.193,30.5045 301.193,19.8378 260.5,18.5C 257.023,17.6773 253.356,17.1773 249.5,17C 244.566,12.5738 240.233,7.74049 236.5,2.5C 274.977,-0.585423 311.977,5.08124 347.5,19.5 Z"/></g>
<g><path style="opacity:0.972" fill="#49bef8" d="M 236.5,2.5 C 240.233,7.74049 244.566,12.5738 249.5,17C 253.356,17.1773 257.023,17.6773 260.5,18.5C 241.677,18.4839 223.01,20.1506 204.5,23.5C 200.441,18.438 195.774,14.1047 190.5,10.5C 205.411,6.12503 220.744,3.45837 236.5,2.5 Z"/></g>
<g><path style="opacity:0.964" fill="#4bb9f8" d="M 190.5,10.5 C 195.774,14.1047 200.441,18.438 204.5,23.5C 191.816,27.1761 179.149,31.1761 166.5,35.5C 162.435,31.4406 158.768,27.1073 155.5,22.5C 166.667,17.3324 178.334,13.3324 190.5,10.5 Z"/></g>
<g><path style="opacity:0.973" fill="#46c8f9" d="M 347.5,19.5 C 416.048,47.048 464.382,95.048 492.5,163.5C 491.883,163.611 491.383,163.944 491,164.5C 481.333,154.833 471.667,145.167 462,135.5C 461.536,136.094 461.369,136.761 461.5,137.5C 439.5,101.5 410.5,72.5 374.5,50.5C 375.239,50.631 375.906,50.4643 376.5,50C 365.949,39.968 356.283,29.8013 347.5,19.5 Z"/></g>
<g><path style="opacity:0.963" fill="#4db2f8" d="M 155.5,22.5 C 158.768,27.1073 162.435,31.4406 166.5,35.5C 158.21,39.4912 149.877,43.4912 141.5,47.5C 136.5,44.5 132.5,40.5 129.5,35.5C 137.57,30.1317 146.237,25.7983 155.5,22.5 Z"/></g>
<g><path style="opacity:0.966" fill="#50abf8" d="M 129.5,35.5 C 132.5,40.5 136.5,44.5 141.5,47.5C 134.704,52.0698 127.704,56.4031 120.5,60.5C 116.167,56.8333 112.167,52.8333 108.5,48.5C 115.252,43.7436 122.252,39.4103 129.5,35.5 Z"/></g>
<g><path style="opacity:0.971" fill="#53a3f8" d="M 108.5,48.5 C 112.167,52.8333 116.167,56.8333 120.5,60.5C 108.604,69.3877 97.2703,79.0544 86.5,89.5C 82.5,85.8333 78.5,82.1667 74.5,78.5C 84.8919,67.442 96.2252,57.442 108.5,48.5 Z"/></g>
<g><path style="opacity:0.965" fill="#5699f8" d="M 74.5,78.5 C 78.5,82.1667 82.5,85.8333 86.5,89.5C 81.8053,94.5261 77.1387,99.5261 72.5,104.5C 68.5,100.833 64.5,97.1667 60.5,93.5C 64.4608,87.8714 69.1275,82.8714 74.5,78.5 Z"/></g>
<g><path style="opacity:0.969" fill="#4bb9f8" d="M 340.5,208.5 C 335.869,204.37 331.369,200.037 327,195.5C 326.617,196.056 326.117,196.389 325.5,196.5C 324.172,155.673 303.505,131.173 263.5,123C 259.848,122.501 256.182,122.335 252.5,122.5C 248.563,117.224 244.229,112.224 239.5,107.5C 278.017,101.84 308.183,115.173 330,147.5C 341.264,166.672 344.764,187.005 340.5,208.5 Z"/></g>
<g><path style="opacity:0.962" fill="#4db2f8" d="M 239.5,107.5 C 244.229,112.224 248.563,117.224 252.5,122.5C 241.973,123.298 231.973,125.965 222.5,130.5C 218.435,126.441 214.768,122.107 211.5,117.5C 220.185,112.383 229.518,109.049 239.5,107.5 Z"/></g>
<g><path style="opacity:0.957" fill="#5a8ef7" d="M 60.5,93.5 C 64.5,97.1667 68.5,100.833 72.5,104.5C 65.5865,113.993 58.9199,123.659 52.5,133.5C 48.4406,129.435 44.1073,125.768 39.5,122.5C 45.3707,111.971 52.3707,102.304 60.5,93.5 Z"/></g>
<g><path style="opacity:0.969" fill="#4facf8" d="M 211.5,117.5 C 214.768,122.107 218.435,126.441 222.5,130.5C 216.177,134.672 210.177,139.339 204.5,144.5C 200.102,141.105 196.436,137.105 193.5,132.5C 198.281,126.1 204.281,121.1 211.5,117.5 Z"/></g>
<g><path style="opacity:0.965" fill="#52a5f8" d="M 193.5,132.5 C 196.436,137.105 200.102,141.105 204.5,144.5C 199.015,150.979 194.349,157.979 190.5,165.5C 187.23,160.56 183.23,156.227 178.5,152.5C 181.993,144.678 186.993,138.011 193.5,132.5 Z"/></g>
<g><path style="opacity:0.968" fill="#47c5f9" d="M 492.5,163.5 C 505.644,198.362 510.977,234.362 508.5,271.5C 507.732,272.263 507.232,273.263 507,274.5C 501.936,269.605 497.103,264.605 492.5,259.5C 492.806,216.057 482.473,175.39 461.5,137.5C 461.369,136.761 461.536,136.094 462,135.5C 471.667,145.167 481.333,154.833 491,164.5C 491.383,163.944 491.883,163.611 492.5,163.5 Z"/></g>
<g><path style="opacity:0.958" fill="#5f82f7" d="M 39.5,122.5 C 44.1073,125.768 48.4406,129.435 52.5,133.5C 45.518,144.495 39.8514,156.162 35.5,168.5C 30.8333,164.5 26.5,160.167 22.5,155.5C 26.8789,143.74 32.5456,132.74 39.5,122.5 Z"/></g>
<g><path style="opacity:0.958" fill="#55a0f8" d="M 178.5,152.5 C 183.23,156.227 187.23,160.56 190.5,165.5C 187.885,173.293 186.219,181.293 185.5,189.5C 180.86,184.194 175.86,179.194 170.5,174.5C 172.083,166.687 174.75,159.354 178.5,152.5 Z"/></g>
<g><path style="opacity:0.974" fill="#6374f6" d="M 22.5,155.5 C 26.5,160.167 30.8333,164.5 35.5,168.5C 31.3702,177.889 28.0369,187.556 25.5,197.5C 20.5778,193.51 15.9111,189.843 11.5,186.5C 13.8037,175.584 17.4704,165.251 22.5,155.5 Z"/></g>
<g><path style="opacity:0.982" fill="#5798f8" d="M 170.5,174.5 C 175.86,179.194 180.86,184.194 185.5,189.5C 185.333,202.161 187.999,214.161 193.5,225.5C 185.5,217.833 177.5,210.167 169.5,202.5C 168.169,193.122 168.502,183.788 170.5,174.5 Z"/></g>
<g><path style="opacity:0.959" fill="#4db2f8" d="M 340.5,208.5 C 338.973,219.093 335.307,228.76 329.5,237.5C 325.833,233.167 321.833,229.167 317.5,225.5C 321.876,216.333 324.542,206.667 325.5,196.5C 326.117,196.389 326.617,196.056 327,195.5C 331.369,200.037 335.869,204.37 340.5,208.5 Z"/></g>
<g><path style="opacity:0.965" fill="#6768f6" d="M 11.5,186.5 C 15.9111,189.843 20.5778,193.51 25.5,197.5C 22.7569,209.034 20.7569,220.701 19.5,232.5C 18.7784,232.918 18.2784,233.584 18,234.5C 13.5738,229.566 8.74049,225.233 3.5,221.5C 5.41546,209.578 8.08213,197.911 11.5,186.5 Z"/></g>
<g><path style="opacity:0.976" fill="#5991f7" d="M 169.5,202.5 C 177.5,210.167 185.5,217.833 193.5,225.5C 200.856,237.855 210.856,247.522 223.5,254.5C 230.777,263.113 238.443,271.447 246.5,279.5C 232.529,280.257 218.862,282.59 205.5,286.5C 201.062,282.564 196.729,278.398 192.5,274C 193.056,273.617 193.389,273.117 193.5,272.5C 199.236,270.817 204.903,268.984 210.5,267C 186.845,251.857 173.178,230.357 169.5,202.5 Z"/></g>
<g><path style="opacity:0.966" fill="#50abf8" d="M 317.5,225.5 C 321.833,229.167 325.833,233.167 329.5,237.5C 326.314,244.355 321.648,250.022 315.5,254.5C 311.167,251.167 306.833,247.833 302.5,244.5C 308.234,238.673 313.234,232.34 317.5,225.5 Z"/></g>
<g><path style="opacity:0.954" fill="#6b5cf5" d="M 3.5,221.5 C 8.74049,225.233 13.5738,229.566 18,234.5C 18.2784,233.584 18.7784,232.918 19.5,232.5C 18.6512,245.147 18.3179,257.813 18.5,270.5C 18.6495,271.552 18.4828,272.552 18,273.5C 13,268.5 8,263.5 3,258.5C 2.72158,259.416 2.22158,260.082 1.5,260.5C 1.55406,247.465 2.22073,234.465 3.5,221.5 Z"/></g>
<g><path style="opacity:0.968" fill="#52a5f8" d="M 302.5,244.5 C 306.833,247.833 311.167,251.167 315.5,254.5C 311.31,259.601 306.31,263.768 300.5,267C 314.034,270.565 327.034,275.398 339.5,281.5C 370.496,314.167 402.496,346.5 435.5,378.5C 438.99,384.78 441.824,391.446 444,398.5C 445.697,395.98 447.53,393.647 449.5,391.5C 454.107,394.768 458.441,398.435 462.5,402.5C 458.224,409.109 453.224,415.109 447.5,420.5C 441.112,414.108 434.445,408.108 427.5,402.5C 407.112,346.779 369.112,308.779 313.5,288.5C 304.717,278.199 295.051,268.032 284.5,258C 283.906,257.536 283.239,257.369 282.5,257.5C 289.683,253.988 296.35,249.654 302.5,244.5 Z"/></g>
<g><path style="opacity:0.97" fill="#54a0f8" d="M 282.5,257.5 C 283.239,257.369 283.906,257.536 284.5,258C 295.051,268.032 304.717,278.199 313.5,288.5C 301.395,284.812 289.062,282.146 276.5,280.5C 270.833,274.5 265.167,268.5 259.5,262.5C 267.358,261.618 275.025,259.951 282.5,257.5 Z"/></g>
<g><path style="opacity:0.963" fill="#5699f8" d="M 223.5,254.5 C 234.754,260.312 246.754,262.979 259.5,262.5C 265.167,268.5 270.833,274.5 276.5,280.5C 266.524,279.668 256.524,279.334 246.5,279.5C 238.443,271.447 230.777,263.113 223.5,254.5 Z"/></g>
<g><path style="opacity:0.968" fill="#49bef8" d="M 492.5,259.5 C 497.103,264.605 501.936,269.605 507,274.5C 507.232,273.263 507.732,272.263 508.5,271.5C 507.685,287.724 505.351,303.724 501.5,319.5C 496.833,315.167 492.167,310.833 487.5,306.5C 490.235,290.952 491.902,275.285 492.5,259.5 Z"/></g>
<g><path style="opacity:0.957" fill="#5f82f7" d="M 193.5,272.5 C 193.389,273.117 193.056,273.617 192.5,274C 196.729,278.398 201.062,282.564 205.5,286.5C 192.385,290.392 179.718,295.392 167.5,301.5C 163.833,297.5 160.167,293.5 156.5,289.5C 167.897,281.971 180.23,276.304 193.5,272.5 Z"/></g>
<g><path style="opacity:0.964" fill="#50a9f8" d="M 339.5,281.5 C 383.584,301.917 415.584,334.25 435.5,378.5C 402.496,346.5 370.496,314.167 339.5,281.5 Z"/></g>
<g><path style="opacity:0.959" fill="#704ff5" d="M 18.5,270.5 C 20.1865,287.276 23.1865,303.942 27.5,320.5C 19.8063,313.473 12.4729,306.14 5.5,298.5C 3.2024,285.981 1.86906,273.315 1.5,260.5C 2.22158,260.082 2.72158,259.416 3,258.5C 8,263.5 13,268.5 18,273.5C 18.4828,272.552 18.6495,271.552 18.5,270.5 Z"/></g>
<g><path style="opacity:0.975" fill="#6375f6" d="M 156.5,289.5 C 160.167,293.5 163.833,297.5 167.5,301.5C 159.671,306.248 152.004,311.248 144.5,316.5C 139.895,313.564 135.895,309.898 132.5,305.5C 139.679,298.997 147.679,293.664 156.5,289.5 Z"/></g>
<g><path style="opacity:0.965" fill="#4bb8f8" d="M 487.5,306.5 C 492.167,310.833 496.833,315.167 501.5,319.5C 497.919,332.645 493.252,345.312 487.5,357.5C 483.868,352.533 479.868,347.867 475.5,343.5C 479.977,331.237 483.977,318.904 487.5,306.5 Z"/></g>
<g><path style="opacity:0.943" fill="#6768f6" d="M 132.5,305.5 C 135.895,309.898 139.895,313.564 144.5,316.5C 136.56,323.103 128.893,330.103 121.5,337.5C 118.036,334.538 114.703,331.371 111.5,328C 110.552,327.517 109.552,327.351 108.5,327.5C 115.575,319.089 123.575,311.756 132.5,305.5 Z"/></g>
<g><path style="opacity:0.973" fill="#7443f4" d="M 5.5,298.5 C 12.4729,306.14 19.8063,313.473 27.5,320.5C 33.7221,341.275 42.3888,360.941 53.5,379.5C 53.631,380.239 53.4643,380.906 53,381.5C 43.1667,371.667 33.3333,361.833 23.5,352C 22.552,351.517 21.552,351.351 20.5,351.5C 13.2775,334.495 8.27754,316.828 5.5,298.5 Z"/></g>
<g><path style="opacity:0.958" fill="#6b5bf5" d="M 108.5,327.5 C 109.552,327.351 110.552,327.517 111.5,328C 114.703,331.371 118.036,334.538 121.5,337.5C 115.802,344.857 110.136,352.191 104.5,359.5C 100.5,355.833 96.5,352.167 92.5,348.5C 97.0731,340.926 102.406,333.926 108.5,327.5 Z"/></g>
<g><path style="opacity:0.961" fill="#4db2f8" d="M 475.5,343.5 C 479.868,347.867 483.868,352.533 487.5,357.5C 484.535,366.097 480.535,374.097 475.5,381.5C 470.893,378.232 466.559,374.565 462.5,370.5C 467.09,361.653 471.423,352.653 475.5,343.5 Z"/></g>
<g><path style="opacity:0.979" fill="#763cf4" d="M 20.5,351.5 C 21.552,351.351 22.552,351.517 23.5,352C 33.3333,361.833 43.1667,371.667 53,381.5C 53.4643,380.906 53.631,380.239 53.5,379.5C 57.8036,385.321 61.9703,391.321 66,397.5C 66.69,398.738 67.19,398.738 67.5,397.5C 72.8003,401.133 77.4669,405.466 81.5,410.5C 80.5269,412.068 80.3603,413.735 81,415.5C 104.808,441.481 132.975,461.147 165.5,474.5C 173.139,483.806 181.472,492.473 190.5,500.5C 168.699,494.931 148.032,486.598 128.5,475.5C 98.9186,444.417 68.752,413.751 38,383.5C 37.6012,383.728 37.4346,384.062 37.5,384.5C 30.5434,374.256 24.8767,363.256 20.5,351.5 Z"/></g>
<g><path style="opacity:0.971" fill="#7050f5" d="M 92.5,348.5 C 96.5,352.167 100.5,355.833 104.5,359.5C 99.5644,367.707 94.8977,376.04 90.5,384.5C 86.4718,380.141 82.4718,375.807 78.5,371.5C 82.3804,363.301 87.047,355.635 92.5,348.5 Z"/></g>
<g><path style="opacity:0.962" fill="#50abf8" d="M 462.5,370.5 C 466.559,374.565 470.893,378.232 475.5,381.5C 471.59,388.748 467.256,395.748 462.5,402.5C 458.441,398.435 454.107,394.768 449.5,391.5C 454.084,384.668 458.417,377.668 462.5,370.5 Z"/></g>
<g><path style="opacity:0.956" fill="#7936f4" d="M 128.5,475.5 C 90.2834,452.923 59.9501,422.589 37.5,384.5C 37.4346,384.062 37.6012,383.728 38,383.5C 68.752,413.751 98.9186,444.417 128.5,475.5 Z"/></g>
<g><path style="opacity:0.976" fill="#7443f4" d="M 78.5,371.5 C 82.4718,375.807 86.4718,380.141 90.5,384.5C 86.9349,392.965 83.9349,401.632 81.5,410.5C 77.4669,405.466 72.8003,401.133 67.5,397.5C 70.406,388.43 74.0726,379.764 78.5,371.5 Z"/></g>
<g><path style="opacity:0.96" fill="#559ef8" d="M 427.5,402.5 C 434.445,408.108 441.112,414.108 447.5,420.5C 443.902,425.274 440.069,429.94 436,434.5C 431.331,438.337 426.831,442.337 422.5,446.5C 418.833,442.167 414.833,438.167 410.5,434.5C 417.105,428.397 423.605,422.063 430,415.5C 429.973,411.049 429.139,406.716 427.5,402.5 Z"/></g>
<g><path style="opacity:0.971" fill="#5993f8" d="M 410.5,434.5 C 414.833,438.167 418.833,442.167 422.5,446.5C 416.478,451.85 410.145,456.85 403.5,461.5C 399.833,457.167 395.833,453.167 391.5,449.5C 398.096,444.912 404.43,439.912 410.5,434.5 Z"/></g>
<g><path style="opacity:0.971" fill="#5d88f7" d="M 391.5,449.5 C 395.833,453.167 399.833,457.167 403.5,461.5C 394.369,468.284 384.702,474.284 374.5,479.5C 369.833,475.833 365.167,472.167 360.5,468.5C 370.964,462.432 381.298,456.099 391.5,449.5 Z"/></g>
<g><path style="opacity:0.971" fill="#7247f5" d="M 165.5,474.5 C 173.735,477.785 182.069,480.785 190.5,483.5C 196.964,490.465 203.631,497.298 210.5,504C 209.944,504.383 209.611,504.883 209.5,505.5C 202.984,504.202 196.651,502.535 190.5,500.5C 181.472,492.473 173.139,483.806 165.5,474.5 Z"/></g>
<g><path style="opacity:0.96" fill="#617bf7" d="M 360.5,468.5 C 365.167,472.167 369.833,475.833 374.5,479.5C 363.471,485.844 351.804,490.844 339.5,494.5C 336.232,489.893 332.565,485.559 328.5,481.5C 339.099,477.207 349.766,472.874 360.5,468.5 Z"/></g>
<g><path style="opacity:0.973" fill="#704df5" d="M 190.5,483.5 C 199.162,485.632 207.828,487.632 216.5,489.5C 222.5,495.833 228.5,502.167 234.5,508.5C 226.156,507.582 217.823,506.582 209.5,505.5C 209.611,504.883 209.944,504.383 210.5,504C 203.631,497.298 196.964,490.465 190.5,483.5 Z"/></g>
<g><path style="opacity:0.955" fill="#656ef6" d="M 328.5,481.5 C 332.565,485.559 336.232,489.893 339.5,494.5C 329.677,498.876 319.344,501.876 308.5,503.5C 304.895,498.226 300.562,493.559 295.5,489.5C 306.436,487.017 317.436,484.35 328.5,481.5 Z"/></g>
<g><path style="opacity:0.97" fill="#6d58f4" d="M 216.5,489.5 C 228.776,491.161 241.109,492.161 253.5,492.5C 260.917,496.226 267.25,501.559 272.5,508.5C 259.842,509.723 247.175,509.723 234.5,508.5C 228.5,502.167 222.5,495.833 216.5,489.5 Z"/></g>
<g><path style="opacity:0.966" fill="#6962f5" d="M 295.5,489.5 C 300.562,493.559 304.895,498.226 308.5,503.5C 296.693,506.282 284.693,507.948 272.5,508.5C 267.25,501.559 260.917,496.226 253.5,492.5C 267.559,492.273 281.559,491.273 295.5,489.5 Z"/></g>
</svg>
