<?xml version="1.0" encoding="UTF-8"?>
<!DOCTYPE svg PUBLIC "-//W3C//DTD SVG 1.1//EN" "http://www.w3.org/Graphics/SVG/1.1/DTD/svg11.dtd">
<svg xmlns="http://www.w3.org/2000/svg" version="1.1" width="245px" height="198px" style="shape-rendering:geometricPrecision; text-rendering:geometricPrecision; image-rendering:optimizeQuality; fill-rule:evenodd; clip-rule:evenodd" xmlns:xlink="http://www.w3.org/1999/xlink">
<g><path style="opacity:0.985" fill="#58a7dd" d="M 187.5,21.5 C 183.818,21.3347 180.152,21.5014 176.5,22C 172.5,25.6667 172.5,29.3333 176.5,33C 194.497,33.4999 212.497,33.6666 230.5,33.5C 233.125,37.3348 233.125,41.1681 230.5,45C 224.5,45.3333 218.5,45.6667 212.5,46C 229.359,71.5803 233.192,99.0803 224,128.5C 211.903,160.263 189.403,180.429 156.5,189C 132.702,194.046 110.369,190.546 89.5,178.5C 94.1785,178.666 98.8452,178.499 103.5,178C 107.5,174.333 107.5,170.667 103.5,167C 83.5028,166.5 63.5028,166.333 43.5,166.5C 36.4921,166.666 29.4921,166.5 22.5,166C 19.8333,162.333 19.8333,158.667 22.5,155C 24.4727,154.505 26.4727,154.338 28.5,154.5C 47.8362,154.667 67.1695,154.5 86.5,154C 89.904,150.585 90.2373,146.919 87.5,143C 76.1716,142.5 64.8382,142.333 53.5,142.5C 33.9065,98.2179 41.5732,59.3845 76.5,26C 105.535,4.32951 137.202,-0.337153 171.5,12C 177.392,14.4375 182.726,17.6042 187.5,21.5 Z"/></g>
<g><path style="opacity:0.961" fill="#58a7dd" d="M 226.5,21.5 C 218.833,21.5 211.167,21.5 203.5,21.5C 199.717,17.7361 199.717,13.9027 203.5,10C 211.167,9.33333 218.833,9.33333 226.5,10C 229.125,13.8319 229.125,17.6652 226.5,21.5 Z"/></g>
<g><path style="opacity:0.992" fill="#f9f9f9" d="M 187.5,21.5 C 192.833,21.5 198.167,21.5 203.5,21.5C 211.167,21.5 218.833,21.5 226.5,21.5C 235.975,18.8191 239.808,22.1524 238,31.5C 235.865,33.2785 233.365,33.9452 230.5,33.5C 212.497,33.6666 194.497,33.4999 176.5,33C 172.5,29.3333 172.5,25.6667 176.5,22C 180.152,21.5014 183.818,21.3347 187.5,21.5 Z"/></g>
<g><path style="opacity:1" fill="#989999" d="M 164.5,63.5 C 163.448,63.6495 162.448,63.4828 161.5,63C 159.874,60.3723 157.874,58.039 155.5,56C 150.287,55.7578 145.12,56.2578 140,57.5C 135.718,57.0179 131.551,56.0179 127.5,54.5C 123.116,56.0475 119.782,58.8808 117.5,63C 116.552,63.4828 115.552,63.6495 114.5,63.5C 112.749,53.1136 115.583,44.4469 123,37.5C 124.468,38.6278 126.135,39.2945 128,39.5C 130,38.8333 132,38.1667 134,37.5C 136.333,38.1667 138.667,38.8333 141,39.5C 142.928,39.0665 144.761,38.3998 146.5,37.5C 148.447,38.277 150.28,39.277 152,40.5C 153.582,38.9712 155.415,38.4712 157.5,39C 163.929,45.8812 166.262,54.0479 164.5,63.5 Z"/></g>
<g><path style="opacity:1" fill="#eadec0" d="M 164.5,63.5 C 167.725,65.2131 170.559,67.5464 173,70.5C 175.275,74.7324 177.775,78.7324 180.5,82.5C 180.595,85.6916 179.929,88.6916 178.5,91.5C 172.002,91.2823 165.669,92.1157 159.5,94C 156.788,97.1024 153.621,99.6024 150,101.5C 149.505,103.473 149.338,105.473 149.5,107.5C 145.348,116.654 138.681,118.988 129.5,114.5C 127.384,112.6 126.051,110.267 125.5,107.5C 125.5,107.167 125.5,106.833 125.5,106.5C 125.085,97.2546 120.085,92.4213 110.5,92C 107.183,91.5017 103.85,91.335 100.5,91.5C 99.3402,88.1054 99.0069,84.7721 99.5,81.5C 102.171,73.451 107.171,67.451 114.5,63.5C 115.552,63.6495 116.552,63.4828 117.5,63C 119.782,58.8808 123.116,56.0475 127.5,54.5C 131.551,56.0179 135.718,57.0179 140,57.5C 145.12,56.2578 150.287,55.7578 155.5,56C 157.874,58.039 159.874,60.3723 161.5,63C 162.448,63.4828 163.448,63.6495 164.5,63.5 Z"/></g>
<g><path style="opacity:1" fill="#b3afa5" d="M 125.5,64.5 C 125.167,64.5 124.833,64.5 124.5,64.5C 126.096,61.2546 128.43,60.7546 131.5,63C 134.085,66.8374 133.751,67.1708 130.5,64C 128.613,63.2204 126.946,63.3871 125.5,64.5 Z"/></g>
<g><path style="opacity:1" fill="#b4b0a6" d="M 146.5,61.5 C 148.429,61.2308 150.095,61.7308 151.5,63C 148.881,63.1515 146.547,63.9848 144.5,65.5C 144.167,65.3333 143.833,65.1667 143.5,65C 144.71,63.9609 145.71,62.7942 146.5,61.5 Z"/></g>
<g><path style="opacity:1" fill="#ea7956" d="M 124.5,64.5 C 124.833,64.5 125.167,64.5 125.5,64.5C 130.105,66.4637 134.438,68.797 138.5,71.5C 139.5,71.3333 140.5,71.1667 141.5,71C 149.942,62.1021 157.776,62.6021 165,72.5C 167.309,82.8383 163.309,88.8383 153,90.5C 150.7,90.5056 148.534,90.0056 146.5,89C 143.185,86.3657 140.685,83.199 139,79.5C 136.523,82.9307 133.689,86.0973 130.5,89C 117.352,92.1859 111.185,87.0192 112,73.5C 114.143,67.6793 118.31,64.6793 124.5,64.5 Z"/></g>
<g><path style="opacity:1" fill="#f9f3f2" d="M 121.5,69.5 C 128.985,69.4831 132.485,73.1498 132,80.5C 126.818,87.0898 121.818,87.0898 117,80.5C 115.776,75.626 117.276,71.9593 121.5,69.5 Z"/></g>
<g><path style="opacity:1" fill="#f9f4f3" d="M 150.5,69.5 C 158.696,69.529 161.863,73.529 160,81.5C 155.412,86.7434 150.745,86.7434 146,81.5C 144.474,76.2389 145.974,72.2389 150.5,69.5 Z"/></g>
<g><path style="opacity:1" fill="#f9f9f9" d="M 99.5,81.5 C 99.0069,84.7721 99.3402,88.1054 100.5,91.5C 100.66,93.1992 100.494,94.8659 100,96.5C 97.59,99.3968 95.4233,102.397 93.5,105.5C 92.9569,105.56 92.6236,105.893 92.5,106.5C 103.48,107.499 114.48,107.832 125.5,107.5C 126.051,110.267 127.384,112.6 129.5,114.5C 138.681,118.988 145.348,116.654 149.5,107.5C 161.5,107.5 173.5,107.5 185.5,107.5C 185.649,106.448 185.483,105.448 185,104.5C 180.189,101.546 178.023,97.2124 178.5,91.5C 179.929,88.6916 180.595,85.6916 180.5,82.5C 181.962,81.5423 183.295,80.3756 184.5,79C 185.5,78.3333 186.5,78.3333 187.5,79C 197.086,88.2494 206.252,97.7494 215,107.5C 217.478,114.725 215.312,120.225 208.5,124C 194.793,124.751 181.127,125.751 167.5,127C 166.515,136.417 166.182,145.917 166.5,155.5C 151.681,158.473 136.681,159.306 121.5,158C 116.691,157.786 112.357,156.286 108.5,153.5C 107.502,144.525 107.168,135.525 107.5,126.5C 95.4781,125.999 83.4781,125.166 71.5,124C 63.8347,120.175 61.668,114.341 65,106.5C 73.1007,96.7277 81.6007,87.2277 90.5,78C 92.1667,77.3333 93.8333,77.3333 95.5,78C 96.1029,80.0714 97.4362,81.2381 99.5,81.5 Z"/></g>
<g><path style="opacity:1" fill="#5aa7dd" d="M 100.5,91.5 C 103.85,91.335 107.183,91.5017 110.5,92C 120.085,92.4213 125.085,97.2546 125.5,106.5C 114.654,106.828 103.987,106.494 93.5,105.5C 95.4233,102.397 97.59,99.3968 100,96.5C 100.494,94.8659 100.66,93.1992 100.5,91.5 Z"/></g>
<g><path style="opacity:1" fill="#5ea9dd" d="M 178.5,91.5 C 178.023,97.2124 180.189,101.546 185,104.5C 185.483,105.448 185.649,106.448 185.5,107.5C 173.5,107.5 161.5,107.5 149.5,107.5C 149.338,105.473 149.505,103.473 150,101.5C 153.621,99.6024 156.788,97.1024 159.5,94C 165.669,92.1157 172.002,91.2823 178.5,91.5 Z"/></g>
<g><path style="opacity:1" fill="#8cc1e6" d="M 93.5,105.5 C 103.987,106.494 114.654,106.828 125.5,106.5C 125.5,106.833 125.5,107.167 125.5,107.5C 114.48,107.832 103.48,107.499 92.5,106.5C 92.6236,105.893 92.9569,105.56 93.5,105.5 Z"/></g>
<g><path style="opacity:0.893" fill="#58a7dd" d="M 9.5,126.5 C 19.7932,128.576 21.7932,133.742 15.5,142C 5.66667,144.167 1.83333,140.333 4,130.5C 5.49981,128.531 7.33314,127.198 9.5,126.5 Z"/></g>
<g><path style="opacity:0.994" fill="#f9f9f9" d="M 53.5,142.5 C 64.8382,142.333 76.1716,142.5 87.5,143C 90.2373,146.919 89.904,150.585 86.5,154C 67.1695,154.5 47.8362,154.667 28.5,154.5C 25.0142,150.935 24.6809,147.101 27.5,143C 36.1603,142.5 44.8269,142.334 53.5,142.5 Z"/></g>
<g><path style="opacity:0.992" fill="#f9f9f9" d="M 43.5,166.5 C 63.5028,166.333 83.5028,166.5 103.5,167C 107.5,170.667 107.5,174.333 103.5,178C 98.8452,178.499 94.1785,178.666 89.5,178.5C 74.163,178.667 58.8297,178.5 43.5,178C 40.8747,174.168 40.8747,170.335 43.5,166.5 Z"/></g>
</svg>
